# xmcd
#
# Track frame offsets:
# 150
# 20263
# 44513
# 60593
# 79873
# 95591
# 108207
# 123781
# 143940
# 159627
# 175583
# 193802
# 207374
# 226213
#
# Disc length: 3265 seconds
#
#
# Revision: 0
# Processed by: cddbd v1.5.2PL0 Copyright (c) Steve Scherf et al.
# Submitted via: FreeRIP 2.945 
#
DISCID=b60cbf0e
DTITLE=Der W - Schneller, höher, Weidner
DYEAR=2008
DGENRE=Hard Rock
TTITLE0=Der W Zwo Drei
TTITLE1=Geschichtenhasser
TTITLE2=Waffen und Neurosen
TTITLE3=Asche zu Asche
TTITLE4=Tränenmeer
TTITLE5=Mein bester Feind
TTITLE6=Angst
TTITLE7=Stille Tage im Klischee
TTITLE8=Schatten
TTITLE9=Bitte töte mich
TTITLE10=Zwischen Traum und Paralyse
TTITLE11=Liebesbrief
TTITLE12=Ein Lied für meinen Sohn
TTITLE13=Pass gut auf dich auf
EXTD=
EXTT0=
EXTT1=
EXTT2=
EXTT3=
EXTT4=
EXTT5=
EXTT6=
EXTT7=
EXTT8=
EXTT9=
EXTT10=
EXTT11=
EXTT12=
EXTT13=
PLAYORDER=
